<?xml version="1.0" ?><svg viewBox="0 0 96 96" xmlns="http://www.w3.org/2000/svg"><title/><path d="M21,56V76.86A17.07,17.07,0,0,0,38,94h0A17.07,17.07,0,0,0,55,76.86V54" style="fill:none;stroke:#273c75;stroke-linecap:round;stroke-linejoin:round;stroke-width:4px"/><circle cx="21" cy="48" r="8" style="fill:none;stroke:#273c75;stroke-linecap:round;stroke-linejoin:round;stroke-width:4px"/><circle cx="21" cy="48" r="8" style="fill:none;stroke:#273c75;stroke-linecap:round;stroke-linejoin:round;stroke-width:4px"/><polygon points="71.5 6 76.5 4 71.5 2 71.5 6" style="fill:none;stroke:#273c75;stroke-linecap:round;stroke-linejoin:round;stroke-width:4px"/><path d="M36,4H31.91C29,4,26.67,7,27,10.35,29.25,30.54,38.69,54,55,54S80.75,30.54,83,10.35C83.33,7,81,4,78.09,4H74" style="fill:none;stroke:#273c75;stroke-linecap:round;stroke-linejoin:round;stroke-width:4px"/><polygon points="38.5 6 33.5 4 38.5 2 38.5 6" style="fill:none;stroke:#273c75;stroke-linecap:round;stroke-linejoin:round;stroke-width:4px"/><circle cx="21" cy="48" r="2" style="fill:none;stroke:#273c75;stroke-linecap:round;stroke-linejoin:round;stroke-width:4px"/></svg>