<?xml version="1.0" ?><svg style="enable-background:new 0 0 36 36;" version="1.1" viewBox="0 0 36 36" xml:space="preserve" xmlns="http://www.w3.org/2000/svg" xmlns:xlink="http://www.w3.org/1999/xlink"><style type="text/css">
	.st0{fill:#273c75;}
	.st1{fill:none;stroke:#273c75;stroke-width:2.0101;stroke-linejoin:round;stroke-miterlimit:10;}
	.st2{fill:#273c75;}
	.st3{fill-rule:evenodd;clip-rule:evenodd;fill:#273c75;}
</style><g id="Layer_1"/><g id="icons"><path class="st0" d="M31.8,16.8h-3.9l1.3-2.3c0.3-0.6,0.1-1.3-0.4-1.6c-0.6-0.3-1.3-0.1-1.6,0.4l-1.3,2.3   L24,12.3h2.6c0.7,0,1.2-0.5,1.2-1.2S27.3,10,26.6,10H24l1.9-3.4c0.3-0.6,0.1-1.3-0.4-1.6c-0.6-0.3-1.3-0.1-1.6,0.4l-1.9,3.4   l-1.3-2.3c-0.3-0.6-1.1-0.8-1.6-0.4c-0.6,0.3-0.8,1.1-0.4,1.6l1.3,2.3h-3.8l1.3-2.3c0.3-0.6,0.1-1.3-0.4-1.6   c-0.6-0.3-1.3-0.1-1.6,0.4l-1.3,2.3l-1.9-3.4c-0.3-0.6-1.1-0.8-1.6-0.4c-0.6,0.3-0.8,1.1-0.4,1.6L12,10H9.4c-0.7,0-1.2,0.5-1.2,1.2   s0.5,1.2,1.2,1.2H12l-1.9,3.3l-1.3-2.3c-0.3-0.6-1.1-0.8-1.6-0.4c-0.6,0.3-0.8,1.1-0.4,1.6l1.3,2.3H4.2C3.5,16.8,3,17.3,3,18   s0.5,1.2,1.2,1.2h3.9l-1.3,2.3c-0.3,0.6-0.1,1.3,0.4,1.6c0.2,0.1,0.4,0.2,0.6,0.2c0.4,0,0.8-0.2,1-0.6l1.3-2.3l1.9,3.3H9.4   c-0.7,0-1.2,0.5-1.2,1.2c0,0.7,0.5,1.2,1.2,1.2H12l-1.9,3.4c-0.3,0.6-0.1,1.3,0.4,1.6c0.2,0.1,0.4,0.2,0.6,0.2c0.4,0,0.8-0.2,1-0.6   l1.9-3.4l1.3,2.3c0.2,0.4,0.6,0.6,1,0.6c0.2,0,0.4-0.1,0.6-0.2c0.6-0.3,0.8-1.1,0.4-1.6L16.1,26h3.8l-1.3,2.3   c-0.3,0.6-0.1,1.3,0.4,1.6c0.2,0.1,0.4,0.2,0.6,0.2c0.4,0,0.8-0.2,1-0.6l1.3-2.3l1.9,3.4c0.2,0.4,0.6,0.6,1,0.6   c0.2,0,0.4-0.1,0.6-0.2c0.6-0.3,0.8-1.1,0.4-1.6L24,26h2.6c0.7,0,1.2-0.5,1.2-1.2c0-0.7-0.5-1.2-1.2-1.2H24l1.9-3.3l1.3,2.3   c0.2,0.4,0.6,0.6,1,0.6c0.2,0,0.4-0.1,0.6-0.2c0.6-0.3,0.8-1.1,0.4-1.6l-1.3-2.3h3.9c0.7,0,1.2-0.5,1.2-1.2   C33,17.3,32.5,16.8,31.8,16.8z M21.3,23.7h-6.5L11.5,18l3.3-5.7h6.5l3.3,5.7L21.3,23.7z" id="air-condition"/></g></svg>