<?xml version="1.0"?><svg xmlns="http://www.w3.org/2000/svg" xmlns:xlink="http://www.w3.org/1999/xlink" version="1.1" viewBox="0 0 512 512" style="enable-background:new 0 0 512 512;" xml:space="preserve"><g id="_x30_7_x2C__Battery_x2C__Energy_x2C__Accumulator_x2C__Transportation_x2C__Electronics_x2C__Electricity_x2C__Automotive_x2C__Technology"><g id="XMLID_84_"><path fill="#273c75" d="M491,361h-5V170.575c14.169-2.388,25-14.737,25-29.575c0-16.542-13.458-30-30-30h-10V91c0-16.542-13.458-30-30-30h-20    c-16.542,0-30,13.458-30,30v20h-20V31c0-16.542-13.458-30-30-30H171c-16.542,0-30,13.458-30,30v80h-20V91    c0-16.542-13.458-30-30-30H71c-16.542,0-30,13.458-30,30v20H31c-16.542,0-30,13.458-30,30c0,14.838,10.831,27.187,25,29.575V361    h-5c-11.028,0-20,8.972-20,20v100c0,16.542,13.458,30,30,30h450c16.542,0,30-13.458,30-30V381C511,369.972,502.028,361,491,361z     M161,31c0-5.514,4.486-10,10-10h170c5.514,0,10,4.486,10,10v80H161V31z M21,141c0-5.514,4.486-10,10-10h450    c5.514,0,10,4.486,10,10s-4.486,10-10,10H31C25.486,151,21,146.514,21,141z M46,171h420v190h-5c-11.028,0-20,8.972-20,20v60H71    v-60c0-11.028-8.972-20-20-20h-5V171z M491,481c0,5.514-4.486,10-10,10H31c-5.514,0-10-4.486-10-10V381h30v70    c0,5.523,4.477,10,10,10h390c5.523,0,10-4.477,10-10v-70h30V481z"/><path fill="#273c75" d="M76,231h10v10c0,5.523,4.477,10,10,10c5.523,0,10-4.477,10-10v-10h10c5.523,0,10-4.477,10-10s-4.477-10-10-10h-10v-10    c0-5.523-4.477-10-10-10c-5.523,0-10,4.477-10,10v10H76c-5.523,0-10,4.477-10,10S70.477,231,76,231z"/><path fill="#273c75" d="M396,231h40c5.523,0,10-4.477,10-10s-4.477-10-10-10h-40c-5.523,0-10,4.477-10,10S390.477,231,396,231z"/><path fill="#273c75" d="M191,326h37.192l-16.894,67.575c-1.131,4.524,1.016,9.23,5.174,11.342c4.153,2.107,9.219,1.075,12.21-2.515l100-120    C334.105,275.894,329.455,266,321,266h-49.23l18.514-46.286C292.911,213.147,288.063,206,281,206h-50    c-4.089,0-7.766,2.489-9.285,6.286l-40,100C179.089,318.853,183.936,326,191,326z"/></g></g><g id="Layer_1"/></svg>